# Blender v2.76 (sub 0) OBJ File: ''
# www.blender.org
o Cone.002_Cone
v 0.450000 0.000000 -0.050000
v 0.550000 -0.000000 0.000000
v 0.450000 -0.047553 -0.015451
v 0.450000 -0.029389 0.040451
v 0.450000 0.029389 0.040451
v 0.450000 0.047553 -0.015451
v -0.000000 -0.050000 -0.450000
v -0.000000 -0.000000 -0.550000
v 0.047553 -0.015451 -0.450000
v 0.029389 0.040451 -0.450000
v -0.029389 0.040451 -0.450000
v -0.047553 -0.015451 -0.450000
v 0.000000 0.450000 -0.050000
v 0.000000 0.550000 0.000000
v 0.047553 0.450000 -0.015451
v 0.029389 0.450000 0.040451
v -0.029389 0.450000 0.040451
v -0.047553 0.450000 -0.015451
v 0.000000 0.000000 -0.006045
v 0.500000 -0.000000 -0.006045
v -0.000000 -0.005235 -0.003022
v 0.500000 -0.005235 -0.003022
v -0.000000 -0.005235 0.003022
v 0.500000 -0.005235 0.003022
v 0.000000 0.000000 0.006045
v 0.500000 -0.000000 0.006045
v 0.000000 0.005235 0.003022
v 0.500000 0.005235 0.003022
v 0.000000 0.005235 -0.003022
v 0.500000 0.005235 -0.003022
v 0.000000 0.006045 -0.500000
v 0.000000 0.006045 0.000000
v 0.005235 0.003022 -0.500000
v 0.005235 0.003022 0.000000
v 0.005235 -0.003022 -0.500000
v 0.005235 -0.003022 0.000000
v -0.000000 -0.006045 -0.500000
v -0.000000 -0.006045 0.000000
v -0.005235 -0.003022 -0.500000
v -0.005235 -0.003022 0.000000
v -0.005235 0.003022 -0.500000
v -0.005235 0.003022 0.000000
v 0.000000 0.000000 -0.006045
v 0.000000 0.500000 -0.006045
v 0.005235 0.000000 -0.003022
v 0.005235 0.500000 -0.003022
v 0.005235 0.000000 0.003022
v 0.005235 0.500000 0.003022
v 0.000000 0.000000 0.006045
v 0.000000 0.500000 0.006045
v -0.005235 0.000000 0.003022
v -0.005235 0.500000 0.003022
v -0.005235 0.000000 -0.003022
v -0.005235 0.500000 -0.003022
vt 0.705202 0.805147
vt 0.705202 0.958831
vt 0.632885 0.833370
vt 0.688550 0.550120
vt 0.747794 0.425641
vt 0.747794 0.582529
vt 0.863557 0.425641
vt 0.863557 0.575122
vt 0.787858 0.447232
vt 0.632885 0.525075
vt 0.902686 0.166170
vt 0.932300 0.021536
vt 0.979968 0.166170
vt 0.753428 0.735841
vt 0.678928 0.762075
vt 0.632885 0.693943
vt 0.298480 0.961110
vt 0.305404 0.974144
vt 0.291555 0.974106
vt 0.244507 0.961110
vt 0.251491 0.965389
vt 0.244507 0.978368
vt 0.134827 0.739314
vt 0.134827 0.021536
vt 0.142074 0.021597
vt 0.400289 0.739305
vt 0.392293 0.739283
vt 0.392293 0.021536
vt 0.304145 0.738671
vt 0.296900 0.738476
vt 0.296900 0.021536
vt 0.290194 0.738721
vt 0.290194 0.021782
vt 0.566323 0.855832
vt 0.552375 0.847135
vt 0.559349 0.842807
vt 0.128124 0.021613
vt 0.352229 0.739321
vt 0.344209 0.739336
vt 0.344209 0.021551
vt 0.566357 0.786717
vt 0.559366 0.799735
vt 0.559366 0.782377
vt 0.552375 0.916232
vt 0.559364 0.903233
vt 0.566354 0.916212
vt 0.197459 0.965418
vt 0.190483 0.978444
vt 0.190483 0.961110
vt 0.678928 0.625602
vt 0.753428 0.651496
vt 0.291555 0.965429
vt 0.305404 0.965467
vt 0.298480 0.978464
vt 0.237523 0.974089
vt 0.237523 0.965460
vt 0.251491 0.974019
vt 0.142074 0.739375
vt 0.400289 0.021558
vt 0.304145 0.021731
vt 0.566323 0.847155
vt 0.559349 0.860161
vt 0.552375 0.855813
vt 0.128124 0.739391
vt 0.352229 0.021536
vt 0.552375 0.786717
vt 0.566357 0.795395
vt 0.552375 0.795395
vt 0.559364 0.920552
vt 0.552375 0.907573
vt 0.566354 0.907553
vt 0.183508 0.965469
vt 0.197459 0.974085
vt 0.183508 0.974136
vt 0.972928 0.217648
vt 0.972928 0.375053
vt 0.903394 0.245729
vt 0.690236 0.151197
vt 0.747587 0.021536
vt 0.747587 0.180516
vt 0.787651 0.347269
vt 0.863330 0.217648
vt 0.863330 0.369256
vt 0.632885 0.121877
vt 0.793492 0.754456
vt 0.864784 0.625602
vt 0.864784 0.782160
vt 0.512311 0.808638
vt 0.438135 0.918895
vt 0.438135 0.782377
vt 0.027023 0.021536
vt 0.034014 0.021536
vt 0.034014 0.739405
vt 0.496550 0.737842
vt 0.488488 0.737813
vt 0.488488 0.021536
vt 0.250130 0.738708
vt 0.243355 0.738467
vt 0.243355 0.021536
vt 0.236166 0.738669
vt 0.236166 0.021738
vt 0.020032 0.021536
vt 0.027023 0.739405
vt 0.448424 0.737776
vt 0.440353 0.737767
vt 0.440353 0.021536
vt 0.392293 0.850520
vt 0.512311 0.893010
vt 0.496550 0.021566
vt 0.250130 0.021777
vt 0.020032 0.739405
vt 0.448424 0.021545
vt 0.793492 0.974754
vt 0.842728 0.825232
vt 0.867822 0.974754
vt 0.690236 0.252908
vt 0.747587 0.382568
vt 0.632885 0.282228
vt 0.787651 0.149944
vt 0.862622 0.021536
vt 0.862622 0.174576
vt 0.747587 0.223588
vt 0.093046 0.782477
vt 0.093046 0.935566
vt 0.020032 0.797127
vt 0.229587 0.781794
vt 0.304145 0.892290
vt 0.229587 0.918037
vt 0.081069 0.739405
vt 0.074078 0.739405
vt 0.074078 0.021536
vt 0.592821 0.732584
vt 0.584750 0.732606
vt 0.584750 0.021558
vt 0.182138 0.021575
vt 0.189327 0.021777
vt 0.189327 0.738708
vt 0.196102 0.021536
vt 0.196102 0.738467
vt 0.088060 0.739405
vt 0.081069 0.021536
vt 0.536614 0.021536
vt 0.544686 0.021551
vt 0.544686 0.734739
vt 0.183508 0.849747
vt 0.304145 0.808086
vt 0.592821 0.021536
vt 0.182138 0.738506
vt 0.088060 0.021536
vt 0.536614 0.734724
vn -0.881700 0.286500 -0.375000
vn 0.544900 -0.750000 -0.375000
vn 0.000000 0.927000 -0.375000
vn -0.544900 -0.750000 -0.375000
vn 0.881700 0.286500 -0.375000
vn -0.000000 0.000000 1.000000
vn 1.000000 0.000000 0.000000
vn -1.000000 0.000000 -0.000000
vn 0.500000 0.866000 0.000000
vn 0.500000 -0.866000 -0.000000
vn -0.500000 -0.866000 -0.000000
vn -0.500000 0.866000 0.000000
vn -0.000000 0.000000 -1.000000
vn 0.000000 1.000000 0.000000
vn -0.000000 -1.000000 0.000000
vn 0.375000 0.881700 0.286500
vn 0.375000 -0.544900 -0.750000
vn 0.375000 0.000000 0.927000
vn 0.375000 0.544900 -0.750000
vn 0.375000 -0.881700 0.286500
vn -0.000000 -0.500000 -0.866000
vn -0.000000 -0.500000 0.866000
vn 0.000000 0.500000 0.866000
vn 0.000000 0.500000 -0.866000
vn -0.881700 0.375000 0.286500
vn 0.544900 0.375000 -0.750000
vn -0.000000 0.375000 0.927000
vn -0.544900 0.375000 -0.750000
vn 0.881700 0.375000 0.286500
vn 0.500000 0.000000 -0.866000
vn 0.500000 0.000000 0.866000
vn -0.500000 0.000000 0.866000
vn -0.500000 -0.000000 -0.866000
s off
f 11/1/1 8/2/1 12/3/1
f 7/4/2 8/5/2 9/6/2
f 10/7/3 8/8/3 11/9/3
f 12/10/4 8/5/4 7/4/4
f 9/11/5 8/12/5 10/13/5
f 10/14/6 11/15/6 12/16/6
f 20/17/7 28/18/7 24/19/7
f 23/20/8 25/21/8 29/22/8
f 31/23/9 32/24/9 34/25/9
f 34/26/7 36/27/7 35/28/7
f 36/29/10 38/30/10 37/31/10
f 38/30/11 40/32/11 39/33/11
f 32/34/6 38/35/6 36/36/6
f 42/37/12 32/24/12 31/23/12
f 40/38/8 42/39/8 41/40/8
f 33/41/13 37/42/13 31/43/13
f 44/44/14 52/45/14 48/46/14
f 45/47/15 49/48/15 43/49/15
f 12/16/6 7/50/6 9/51/6
f 9/51/6 10/14/6 12/16/6
f 24/19/7 22/52/7 20/17/7
f 20/17/7 30/53/7 28/18/7
f 28/18/7 26/54/7 24/19/7
f 29/22/8 19/55/8 21/56/8
f 21/56/8 23/20/8 29/22/8
f 25/21/8 27/57/8 29/22/8
f 33/58/9 31/23/9 34/25/9
f 33/59/7 34/26/7 35/28/7
f 35/60/10 36/29/10 37/31/10
f 37/31/11 38/30/11 39/33/11
f 36/36/6 34/61/6 32/34/6
f 32/34/6 42/62/6 40/63/6
f 40/63/6 38/35/6 32/34/6
f 41/64/12 42/37/12 31/23/12
f 39/65/8 40/38/8 41/40/8
f 41/66/13 31/43/13 37/42/13
f 33/41/13 35/67/13 37/42/13
f 37/42/13 39/68/13 41/66/13
f 48/46/14 46/69/14 44/44/14
f 44/44/14 54/70/14 52/45/14
f 52/45/14 50/71/14 48/46/14
f 53/72/15 43/49/15 49/48/15
f 45/47/15 47/73/15 49/48/15
f 49/48/15 51/74/15 53/72/15
f 5/75/16 2/76/16 6/77/16
f 1/78/17 2/79/17 3/80/17
f 4/81/18 2/82/18 5/83/18
f 6/84/19 2/79/19 1/78/19
f 3/85/20 2/86/20 4/87/20
f 3/88/8 5/89/8 1/90/8
f 20/91/21 22/92/21 21/93/21
f 22/94/15 24/95/15 23/96/15
f 24/97/22 26/98/22 25/99/22
f 26/98/23 28/100/23 27/101/23
f 30/102/24 20/91/24 19/103/24
f 28/104/14 30/105/14 29/106/14
f 6/107/8 1/90/8 5/89/8
f 3/88/8 4/108/8 5/89/8
f 19/103/21 20/91/21 21/93/21
f 21/109/15 22/94/15 23/96/15
f 23/110/22 24/97/22 25/99/22
f 25/99/23 26/98/23 27/101/23
f 29/111/24 30/102/24 19/103/24
f 27/112/14 28/104/14 29/106/14
f 17/113/25 14/114/25 18/115/25
f 13/116/26 14/117/26 15/118/26
f 16/119/27 14/120/27 17/121/27
f 18/122/28 14/117/28 13/116/28
f 15/123/29 14/124/29 16/125/29
f 15/126/15 17/127/15 18/128/15
f 44/129/30 46/130/30 45/131/30
f 46/132/7 48/133/7 47/134/7
f 48/135/31 50/136/31 49/137/31
f 50/136/32 52/138/32 51/139/32
f 54/140/33 44/129/33 43/141/33
f 52/142/8 54/143/8 53/144/8
f 18/128/15 13/145/15 15/126/15
f 15/126/15 16/146/15 17/127/15
f 43/141/30 44/129/30 45/131/30
f 45/147/7 46/132/7 47/134/7
f 47/148/31 48/135/31 49/137/31
f 49/137/32 50/136/32 51/139/32
f 53/149/33 54/140/33 43/141/33
f 51/150/8 52/142/8 53/144/8
