# Blender v2.69 (sub 0) OBJ File: 'BSwap_Rocks_02.blend'
# www.blender.org
o Rock02_LP
v 4.098877 14.096397 0.265450
v 6.911376 12.958085 -10.867641
v 4.494299 14.211478 -5.508694
v 2.653183 14.861877 -0.608647
v 12.191273 5.075901 -11.671260
v 12.420681 8.397530 -8.720318
v -0.378966 14.503541 4.477722
v 8.606327 11.832995 -9.899968
v 5.954253 13.492118 -4.638567
v -1.642016 15.666493 2.451645
v 5.568958 14.765366 1.080445
v 7.587559 13.855527 -3.782366
v 10.740415 12.073546 -7.847316
v 13.856637 9.653396 -6.283664
v 11.163382 12.045913 -1.116844
v 8.194965 12.751641 3.309000
v 1.664162 14.823390 4.626229
v 4.063451 13.140178 7.331311
v 1.450124 12.319608 -15.070103
v 2.069782 12.028369 8.105478
v -3.649745 14.396855 -10.434304
v -7.624220 15.476495 -6.885983
v -8.558694 16.426434 0.540673
v -10.548018 15.516845 -3.863841
v 14.205564 7.623484 2.497102
v 10.375737 9.572118 5.992790
v 5.249661 10.719832 10.038838
v 14.536851 3.745187 5.080577
v 10.784249 5.991788 8.194928
v 6.823655 7.854623 11.619230
v 2.866186 9.706818 10.985362
v 3.530298 7.626379 11.949191
v 3.807458 1.840114 11.420213
v 7.769984 2.978743 11.170883
v 10.785847 2.992825 8.509522
v 6.248922 1.101466 9.868752
v 8.812543 0.108165 7.660599
v 13.704135 0.637940 5.150863
v 12.053907 -1.093133 3.083752
v -8.337773 16.340006 3.474114
v -2.689204 14.815784 5.274224
v -3.827047 15.558728 7.526961
v -6.032224 13.175447 12.820644
v -1.254819 12.441895 13.711195
v -0.396117 14.552805 9.423327
v -1.623036 15.643689 7.636462
v -1.667603 10.470831 14.897366
v 1.426829 3.348973 14.250177
v 1.147843 10.117028 14.218780
v 1.532915 12.194234 11.436386
v 1.665305 1.132197 11.065961
v -3.326778 1.678658 11.472749
v -7.276696 2.195261 10.596304
v -9.875666 5.927396 10.205871
v -9.775949 10.862341 9.644329
v -11.226869 -4.220982 0.451782
v -11.527442 13.707585 1.971379
v -0.415579 -2.705303 4.837187
v 7.325094 -0.976396 7.028187
v 3.243722 0.074122 10.312788
v 9.698690 -2.007354 3.248518
v 12.162507 -1.995154 -3.224484
v -1.830946 -0.579792 10.332644
v -7.065763 0.221832 10.385910
v 2.186837 5.987632 14.307638
v -3.532756 3.569021 13.988814
v -7.224197 4.022542 12.260137
v -6.274403 10.726851 14.190396
v 10.235778 -3.559375 -2.644018
v 12.946086 2.393195 -8.585617
v 16.416611 4.430170 1.585547
v 14.810201 0.145975 2.258516
v 15.208012 7.320082 -1.693123
v 14.706914 6.155126 -9.071767
v 15.259661 3.428601 -5.811803
v 15.038798 0.021622 -2.539108
v 12.531365 -0.655951 -4.868858
v 9.631858 -0.121482 -12.267091
v 8.710402 -3.853021 -8.375985
v 9.389217 2.448481 -14.942374
v 3.592959 -6.039143 -13.033606
v 4.523700 -1.148518 -16.004633
v 5.500047 3.211216 -17.516756
v -10.285301 -1.842230 6.031346
v 5.978616 -4.917719 -4.199644
v 0.893646 -6.442920 -8.752308
v 2.389526 2.003257 -17.548439
v -3.410447 4.281553 -18.323654
v -10.324718 5.249725 -14.584648
v -14.552313 5.220860 -8.899659
v -16.075514 3.494146 -3.783755
v 9.738581 9.085545 -13.849781
v 5.812352 9.012164 -16.303246
v 0.561391 7.751948 -18.573986
v -3.766930 6.028758 -19.377403
v -10.660007 6.825423 -15.029060
v -15.186724 7.305889 -9.289508
v 1.721569 4.059850 -18.852329
v -15.845325 5.751641 -2.659137
v -5.339304 1.516212 -17.468567
v -2.534747 -6.378491 -12.709164
v -7.737266 -6.055256 -7.076584
v -2.940068 -7.045215 -10.774403
v -8.637418 -2.467376 -14.166810
v -12.585749 -1.863667 -10.193339
v -14.467250 -1.676521 -4.794537
v -13.248732 -2.392084 1.736701
v -11.572004 -0.336686 6.443260
v -13.301769 6.292417 6.967772
v -12.619615 10.427115 6.271682
v -11.863935 11.848811 5.854236
v -15.532526 4.002224 1.380778
v -14.979211 7.818901 0.991592
v -13.028520 11.529187 -6.869456
v -4.135582 9.525304 -17.079729
v -8.674520 11.161345 -12.328789
v -8.557558 9.639205 14.277983
v -2.623006 6.790036 14.740259
v -6.862729 7.349777 13.973816
v -9.133726 12.491824 12.524252
v -9.420218 14.571053 10.245865
v -13.518391 11.492373 -0.977582
v -10.729884 15.251067 1.924946
v -11.750042 12.655885 7.920849
v -10.822083 14.833899 8.795401
v -12.271682 13.464829 5.406640
v -5.353822 14.691592 10.364873
v -10.173490 16.214952 6.561969
v -6.904612 15.984956 7.784668
v -10.055578 1.687363 -14.956470
v -14.400928 1.609268 -9.615059
v 5.167049 1.487879 -16.803123
vt 0.631835 0.157179
vt 0.633017 0.172196
vt 0.589350 0.153752
vt 0.682417 0.147501
vt 0.685193 0.168432
vt 0.545578 0.188222
vt 0.535964 0.163979
vt 0.629541 0.142487
vt 0.589442 0.140343
vt 0.688445 0.102135
vt 0.665527 0.097153
vt 0.624134 0.108510
vt 0.587386 0.111415
vt 0.548222 0.148707
vt 0.524360 0.117256
vt 0.544696 0.116114
vt 0.644185 0.256674
vt 0.598308 0.276969
vt 0.588624 0.168400
vt 0.530483 0.255443
vt 0.561200 0.291075
vt 0.583436 0.079865
vt 0.616102 0.068293
vt 0.537790 0.088037
vt 0.576874 0.053053
vt 0.608199 0.042589
vt 0.541158 0.063020
vt 0.516076 0.085322
vt 0.517235 0.064201
vt 0.550289 0.030619
vt 0.522209 0.019220
vt 0.577815 0.032854
vt 0.546101 0.011130
vt 0.609263 0.024135
vt 0.575172 0.006891
vt 0.619654 0.005264
vt 0.516051 0.180521
vt 0.505165 0.240760
vt 0.600646 0.360361
vt 0.614280 0.345145
vt 0.639767 0.364854
vt 0.581336 0.404504
vt 0.589663 0.382962
vt 0.601693 0.394394
vt 0.595962 0.423594
vt 0.619509 0.391548
vt 0.639790 0.415340
vt 0.647184 0.388404
vt 0.669937 0.396306
vt 0.649197 0.354029
vt 0.661504 0.368630
vt 0.851209 0.294258
vt 0.888356 0.263984
vt 0.904520 0.276037
vt 0.690971 0.384059
vt 0.864691 0.309468
vt 0.816137 0.302163
vt 0.703884 0.246898
vt 0.717972 0.238986
vt 0.748462 0.267185
vt 0.767136 0.313264
vt 0.774346 0.297600
vt 0.790929 0.316913
vt 0.819230 0.317350
vt 0.689635 0.357616
vt 0.736026 0.349947
vt 0.701929 0.341624
vt 0.730892 0.326011
vt 0.696505 0.293978
vt 0.677951 0.312864
vt 0.655153 0.289279
vt 0.665522 0.269991
vt 0.623054 0.277886
vt 0.627656 0.333046
vt 0.725611 0.271764
vt 0.757902 0.297045
vt 0.641775 0.072045
vt 0.628360 0.050042
vt 0.627542 0.024954
vt 0.673094 0.055685
vt 0.699160 0.051631
vt 0.714928 0.079043
vt 0.688500 0.078959
vt 0.657011 0.029875
vt 0.667361 0.007706
vt 0.679255 0.021139
vt 0.958914 0.261594
vt 0.922166 0.272578
vt 0.953171 0.218434
vt 0.988704 0.247122
vt 0.980298 0.207626
vt 0.912760 0.226572
vt 0.950857 0.170027
vt 0.976193 0.362388
vt 0.995021 0.333574
vt 0.988863 0.368603
vt 0.910198 0.175570
vt 0.875215 0.230783
vt 0.972532 0.170503
vt 0.971236 0.145888
vt 0.954283 0.310748
vt 0.930592 0.286278
vt 0.966307 0.272489
vt 0.942049 0.338931
vt 0.917267 0.298068
vt 0.903073 0.346283
vt 0.931032 0.377134
vt 0.956815 0.384555
vt 0.880016 0.452146
vt 0.873556 0.440679
vt 0.935246 0.418492
vt 0.824777 0.476243
vt 0.821232 0.459571
vt 0.975518 0.387957
vt 0.924260 0.408671
vt 0.780523 0.496315
vt 0.769844 0.477329
vt 0.944725 0.090625
vt 0.972002 0.095967
vt 0.886287 0.137777
vt 0.875798 0.178764
vt 0.870825 0.146297
vt 0.822404 0.137334
vt 0.726486 0.087249
vt 0.746182 0.014209
vt 0.767381 0.065383
vt 0.806457 0.072246
vt 0.704926 0.107152
vt 0.768389 0.125823
vt 0.846735 0.066555
vt 0.818262 0.098029
vt 0.805312 0.019092
vt 0.871697 0.022266
vt 0.923050 0.016498
vt 0.929598 0.031956
vt 0.888174 0.039814
vt 0.970070 0.003853
vt 0.980532 0.016911
vt 0.986373 0.053937
vt 0.957574 0.079713
vt 0.653254 0.421057
vt 0.691313 0.432926
vt 0.640842 0.464464
vt 0.693824 0.418470
vt 0.866654 0.103171
vt 0.738323 0.460112
vt 0.735222 0.493095
vt 0.759319 0.157458
vt 0.789313 0.243833
vt 0.728985 0.194737
vt 0.899171 0.393575
vt 0.851439 0.405708
vt 0.800967 0.423931
vt 0.808935 0.371605
vt 0.849743 0.357953
vt 0.777711 0.385901
vt 0.664016 0.333523
vt 0.623322 0.319496
vt 0.640399 0.313921
vt 0.590048 0.303774
vt 0.604377 0.326519
vt 0.584650 0.335315
vt 0.753706 0.426875
vt 0.507399 0.272488
vt 0.728908 0.387898
vt 0.728308 0.402528
vt 0.570157 0.332004
vt 0.562703 0.314311
vt 0.543951 0.304674
vt 0.540408 0.321104
vt 0.511792 0.333655
vt 0.556483 0.345816
vt 0.517078 0.350071
vt 0.539018 0.369695
vt 0.576708 0.362302
vt 0.767169 0.097720
vt 0.826130 0.125087
vt 0.987402 0.297370
vt 0.667866 0.127767
vt 0.703419 0.229311
vt 0.683814 0.469722
vt 0.906558 0.089515
vn 0.194739 0.971007 -0.138493
vn 0.287912 0.955290 -0.066805
vn 0.024567 0.994171 -0.104740
vn 0.551073 0.784020 -0.285623
vn 0.407483 0.870266 -0.276681
vn 0.180364 0.968810 0.169836
vn 0.227729 0.956114 0.184301
vn 0.218757 0.965758 -0.139378
vn 0.171972 0.985046 0.010010
vn 0.675436 0.499405 -0.542528
vn 0.767083 0.595843 -0.237709
vn 0.591388 0.799554 0.104617
vn 0.508499 0.807031 0.300150
vn -0.026124 0.964995 0.260933
vn 0.322459 0.836299 0.443373
vn 0.177465 0.835963 0.519242
vn -0.074007 0.909696 -0.408551
vn -0.188269 0.921690 -0.339122
vn 0.283639 0.957488 0.052339
vn -0.148869 0.988830 -0.002136
vn -0.533860 0.826075 -0.180456
vn 0.636067 0.595965 0.490097
vn 0.757012 0.553575 0.347026
vn 0.298563 0.682424 0.667165
vn 0.688559 0.284036 0.667196
vn 0.806726 0.073885 0.586261
vn 0.428083 0.323954 0.843654
vn 0.561541 0.589465 0.580645
vn 0.528214 0.223762 0.819056
vn 0.431318 -0.339213 0.835994
vn 0.297617 -0.488083 0.820460
vn 0.616260 -0.270516 0.739586
vn 0.336406 -0.651387 0.680074
vn 0.556932 -0.581591 0.592883
vn 0.438368 -0.660268 0.609790
vn 0.402905 -0.861110 0.310007
vn 0.106540 0.993591 -0.037599
vn -0.027589 0.999390 -0.020051
vn -0.007080 0.905850 0.423475
vn -0.130497 0.718986 0.682607
vn 0.293924 0.627735 0.720756
vn 0.061281 0.996734 0.052400
vn 0.236061 0.965880 0.106326
vn 0.459975 0.850642 0.254524
vn 0.701682 0.614215 0.361034
vn 0.094272 0.287332 0.953154
vn 0.503189 0.426069 0.751793
vn 0.278207 -0.904172 0.324107
vn 0.467818 -0.875759 0.118992
vn 0.639790 -0.763237 -0.089999
vn 0.232337 -0.857295 0.459365
vn -0.499191 -0.414960 0.760643
vn -0.351726 -0.453780 0.818751
vn -0.003418 -0.732170 0.681082
vn 0.155126 -0.723716 0.672414
vn 0.531907 -0.016968 0.846614
vn 0.227668 -0.442457 0.867397
vn 0.031800 -0.681783 0.730857
vn -0.147221 -0.685110 0.713370
vn -0.224219 -0.475112 0.850856
vn -0.551622 -0.433760 0.712424
vn -0.756615 -0.216529 0.616901
vn -0.132084 0.281381 0.950438
vn 0.899319 0.437239 0.003235
vn 0.974883 0.099246 0.199255
vn 0.743492 -0.636036 0.206427
vn 0.930174 -0.208686 -0.301950
vn 0.775811 -0.445051 -0.447188
vn 0.816736 -0.008148 -0.576891
vn 0.824580 0.153813 -0.544389
vn 0.796716 -0.585589 -0.149327
vn 0.685080 -0.615772 -0.389172
vn 0.670797 -0.547533 -0.500198
vn 0.641987 -0.275857 -0.715354
vn 0.586718 -0.771203 -0.246864
vn 0.331919 -0.483291 -0.810083
vn 0.403211 -0.144200 -0.903653
vn 0.352794 -0.409009 -0.841548
vn 0.322672 -0.807825 -0.493240
vn 0.201270 -0.966247 0.160680
vn 0.041322 -0.468734 -0.882351
vn 0.648366 0.450179 -0.613941
vn 0.406201 0.434156 -0.804041
vn 0.088321 0.797418 -0.596912
vn 0.147649 0.382977 -0.911863
vn 0.139256 -0.216132 -0.966369
vn -0.659444 -0.167608 -0.732810
vn -0.641163 0.148869 -0.752800
vn -0.227943 -0.398846 -0.888211
vn -0.867702 -0.173040 -0.465957
vn -0.889645 0.176061 -0.421277
vn -0.294504 -0.006317 -0.955596
vn -0.993286 -0.111606 -0.030305
vn -0.982421 0.165258 0.086734
vn -0.255623 -0.266610 -0.929258
vn -0.155004 -0.794000 -0.587756
vn 0.118748 -0.982940 0.140233
vn -0.153996 -0.981292 -0.115390
vn -0.322581 -0.945677 -0.039766
vn -0.468947 -0.598346 -0.649648
vn -0.698843 -0.579424 -0.419294
vn -0.801294 -0.592029 -0.085757
vn -0.877773 -0.155370 -0.453139
vn -0.354442 -0.910550 0.212714
vn -0.365581 -0.775597 0.514542
vn -0.662130 -0.439497 0.606952
vn -0.733879 -0.599536 0.319285
vn -0.823145 0.005036 0.567766
vn -0.895810 0.025025 0.443709
vn -0.829127 0.358104 0.429243
vn -0.964660 0.142888 0.221259
vn -0.943236 0.283944 0.172246
vn -0.961638 -0.089541 0.259285
vn 0.046815 -0.941923 0.332499
vn -0.317942 0.618397 -0.718650
vn -0.441816 0.686392 -0.577593
vn -0.736137 0.607440 -0.298441
vn -0.089969 -0.142949 0.985626
vn -0.540635 -0.001038 0.841243
vn -0.343120 -0.304300 0.888607
vn -0.672964 0.433882 0.599017
vn -0.466842 0.638661 0.611682
vn -0.864284 0.500504 0.049715
vn -0.694266 0.718619 -0.039125
vn -0.882046 0.471114 0.005799
vn -0.661946 0.533464 0.526505
vn -0.890530 -0.149998 0.429426
vn -0.986999 0.159185 -0.020814
vn -0.421552 0.892666 0.159368
vn 0.109378 0.942564 0.315592
vn -0.634236 -0.146306 -0.759148
vn 0.544115 0.753716 -0.368511
s 1
f 9/1/1 3/2/2 1/3/3
f 8/4/4 2/5/5 3/2/2
f 10/6/6 7/7/7 1/3/3
f 12/8/8 9/1/1 11/9/9
f 6/10/10 8/4/4 14/11/11
f 8/4/4 9/1/1 12/8/8
f 15/12/12 14/11/11 12/8/8
f 11/9/9 16/13/13 12/8/8
f 11/9/9 17/14/14 16/13/13
f 1/3/3 7/7/7 11/9/9
f 20/15/15 18/16/16 7/7/7
f 21/17/17 3/2/2 2/5/5
f 22/18/18 4/19/19 3/2/2
f 23/20/20 10/6/6 4/19/19
f 22/18/18 24/21/21 23/20/20
f 16/13/13 26/22/22 25/23/23
f 18/16/16 27/24/24 16/13/13
f 26/22/22 29/25/25 28/26/26
f 27/24/24 30/27/27 29/25/25
f 20/15/15 31/28/28 18/16/16
f 32/29/29 30/27/27 31/28/28
f 34/30/30 30/27/27 33/31/31
f 35/32/32 29/25/25 30/27/27
f 29/25/25 35/32/32 28/26/26
f 33/31/31 36/33/33 34/30/30
f 35/32/32 34/30/30 36/33/33
f 35/32/32 38/34/34 28/26/26
f 37/35/35 39/36/36 35/32/32
f 10/6/6 41/37/37 7/7/7
f 23/20/20 40/38/38 41/37/37
f 127/39/39 43/40/40 44/41/41
f 41/42/37 42/43/42 46/44/43
f 41/42/37 46/44/43 7/45/7
f 42/43/42 45/46/44 46/44/43
f 20/47/15 46/44/43 45/46/44
f 7/45/7 46/44/43 20/47/15
f 44/41/41 50/48/45 45/46/44
f 20/47/15 50/48/45 31/49/28
f 47/50/46 49/51/47 50/48/45
f 45/46/44 50/48/45 20/47/15
f 61/52/48 69/53/49 62/54/50
f 31/49/28 50/48/45 32/55/29
f 61/52/48 39/56/36 59/57/51
f 53/58/52 64/59/53 63/60/54
f 33/61/31 60/62/55 36/63/33
f 36/63/33 60/62/55 37/64/35
f 49/51/47 65/65/56 32/55/29
f 33/66/31 65/65/56 48/67/57
f 32/55/29 65/65/56 33/66/31
f 48/67/57 51/68/58 33/66/31
f 52/69/59 51/68/58 66/70/60
f 67/71/61 53/72/52 66/70/60
f 54/73/62 53/72/52 67/71/61
f 68/74/63 47/50/46 43/40/40
f 52/75/59 63/60/54 60/62/55
f 33/61/31 51/76/58 60/62/55
f 73/77/64 25/23/23 71/78/65
f 28/26/26 71/78/65 25/23/23
f 38/34/34 72/79/66 71/78/65
f 39/36/36 72/79/66 38/34/34
f 14/11/11 15/12/12 73/77/64
f 15/12/12 25/23/23 73/77/64
f 75/80/67 70/81/68 5/82/69
f 14/11/11 74/83/70 5/82/69
f 73/77/64 75/80/67 74/83/70
f 71/78/65 76/84/71 75/80/67
f 71/78/65 72/79/66 76/84/71
f 62/85/50 76/84/71 39/36/36
f 70/81/68 75/80/67 76/84/71
f 76/84/71 62/85/50 77/86/72
f 70/87/68 77/88/72 78/89/73
f 5/90/69 70/87/68 80/91/74
f 69/53/49 79/92/75 62/54/50
f 62/54/50 79/92/75 77/88/72
f 78/89/73 79/92/75 82/93/76
f 83/94/77 80/95/74 132/96/78
f 81/97/79 79/92/75 85/98/80
f 69/53/49 85/98/80 79/92/75
f 132/99/78 82/93/76 87/100/81
f 92/101/82 8/102/4 6/103/10
f 93/104/83 92/101/82 80/95/74
f 80/95/74 83/94/77 93/104/83
f 8/102/4 92/101/82 2/105/5
f 2/105/5 92/101/82 19/106/84
f 94/107/85 93/104/83 98/108/86
f 89/109/87 96/110/88 88/111/89
f 90/112/90 97/113/91 89/109/87
f 98/108/86 83/94/77 87/114/81
f 93/104/83 83/94/77 98/108/86
f 94/107/85 98/108/86 95/115/92
f 88/111/89 95/115/92 87/114/81
f 91/116/93 99/117/94 97/113/91
f 100/118/95 88/119/89 82/93/76
f 101/120/96 100/118/95 81/97/79
f 81/97/79 86/121/97 103/122/98
f 86/121/97 102/123/99 103/122/98
f 102/123/99 101/120/96 103/122/98
f 101/120/96 81/97/79 103/122/98
f 100/124/95 101/125/96 104/126/100
f 105/127/101 104/126/100 101/125/96
f 88/128/89 100/124/95 89/129/87
f 105/127/101 106/130/102 131/131/103
f 102/132/99 56/133/104 105/127/101
f 56/133/104 84/134/105 108/135/106
f 56/133/104 107/136/107 106/130/102
f 84/134/105 64/137/53 53/138/52
f 54/139/62 109/140/108 53/138/52
f 55/141/109 110/142/110 54/143/62
f 55/141/109 111/144/111 110/142/110
f 91/145/93 106/130/102 107/136/107
f 108/135/106 109/140/108 107/136/107
f 110/142/110 113/146/112 112/147/113
f 99/117/94 91/116/93 113/146/112
f 60/62/55 63/60/54 59/57/51
f 56/148/104 58/149/114 84/150/105
f 102/123/99 86/121/97 56/148/104
f 59/57/51 58/149/114 85/98/80
f 61/52/48 85/98/80 69/53/49
f 58/149/114 86/121/97 85/98/80
f 64/59/53 84/150/105 63/60/54
f 93/104/83 94/107/85 19/106/84
f 94/107/85 115/151/115 19/106/84
f 94/107/85 95/115/92 115/151/115
f 95/115/92 96/110/88 116/152/116
f 97/113/91 114/153/117 96/110/88
f 19/106/84 115/151/115 116/152/116
f 22/154/18 21/155/17 116/152/116
f 24/156/21 22/154/18 116/152/116
f 114/153/117 24/156/21 116/152/116
f 118/157/118 65/65/56 47/50/46
f 65/65/56 118/157/118 66/70/60
f 68/74/63 117/158/119 119/159/120
f 118/157/118 47/50/46 68/74/63
f 66/70/60 118/157/118 67/71/61
f 67/71/61 118/157/118 119/159/120
f 54/73/62 67/71/61 119/159/120
f 117/158/119 54/73/62 119/159/120
f 118/157/118 68/74/63 119/159/120
f 55/160/109 54/73/62 120/161/121
f 55/160/109 120/161/121 121/162/122
f 43/40/40 120/161/121 117/158/119
f 122/163/123 114/153/117 97/113/91
f 99/117/94 113/146/112 122/163/123
f 110/142/110 122/163/123 113/146/112
f 110/142/110 111/144/111 122/163/123
f 24/21/21 123/164/124 23/20/20
f 24/156/21 114/153/117 122/163/123
f 123/165/124 24/156/21 57/166/125
f 24/156/21 122/163/123 57/166/125
f 125/167/126 124/168/127 55/160/109
f 42/43/42 127/39/39 45/46/44
f 45/46/44 127/39/39 44/41/41
f 127/39/39 121/162/122 120/161/121
f 111/169/111 55/160/109 124/168/127
f 126/170/128 111/169/111 124/168/127
f 111/169/111 126/170/128 57/171/125
f 128/172/129 123/173/124 126/170/128
f 40/174/38 123/173/124 128/172/129
f 126/170/128 123/173/124 57/171/125
f 124/168/127 125/167/126 126/170/128
f 125/167/126 128/172/129 126/170/128
f 121/162/122 127/39/39 42/43/42
f 42/43/42 41/42/37 129/175/130
f 40/174/38 128/172/129 129/175/130
f 41/42/37 40/174/38 129/175/130
f 125/167/126 121/162/122 129/175/130
f 100/124/95 104/126/100 130/176/131
f 89/129/87 130/176/131 90/177/90
f 91/145/93 90/177/90 131/131/103
f 106/130/102 91/145/93 131/131/103
f 105/127/101 131/131/103 104/126/100
f 100/124/95 130/176/131 89/129/87
f 5/178/69 92/101/82 6/103/10
f 92/101/82 5/178/69 80/95/74
f 78/89/73 82/93/76 132/99/78
f 80/91/74 78/89/73 132/99/78
f 83/94/77 132/96/78 87/114/81
f 3/2/2 4/19/19 1/3/3
f 9/1/1 8/4/4 3/2/2
f 4/19/19 10/6/6 1/3/3
f 9/1/1 1/3/3 11/9/9
f 8/4/4 13/179/132 14/11/11
f 13/179/132 8/4/4 12/8/8
f 14/11/11 13/179/132 12/8/8
f 16/13/13 15/12/12 12/8/8
f 17/14/14 18/16/16 16/13/13
f 7/7/7 17/14/14 11/9/9
f 18/16/16 17/14/14 7/7/7
f 19/180/84 21/17/17 2/5/5
f 21/17/17 22/18/18 3/2/2
f 22/18/18 23/20/20 4/19/19
f 15/12/12 16/13/13 25/23/23
f 27/24/24 26/22/22 16/13/13
f 25/23/23 26/22/22 28/26/26
f 26/22/22 27/24/24 29/25/25
f 31/28/28 27/24/24 18/16/16
f 30/27/27 27/24/24 31/28/28
f 30/27/27 32/29/29 33/31/31
f 34/30/30 35/32/32 30/27/27
f 37/35/35 35/32/32 36/33/33
f 39/36/36 38/34/34 35/32/32
f 10/6/6 23/20/20 41/37/37
f 44/41/41 47/50/46 50/48/45
f 39/56/36 61/52/48 62/54/50
f 50/48/45 49/51/47 32/55/29
f 39/56/36 37/64/35 59/57/51
f 52/75/59 53/58/52 63/60/54
f 60/62/55 59/57/51 37/64/35
f 51/68/58 48/67/57 66/70/60
f 53/72/52 52/69/59 66/70/60
f 47/50/46 44/41/41 43/40/40
f 51/76/58 52/75/59 60/62/55
f 28/26/26 38/34/34 71/78/65
f 74/83/70 75/80/67 5/82/69
f 6/10/10 14/11/11 5/82/69
f 14/11/11 73/77/64 74/83/70
f 73/77/64 71/78/65 75/80/67
f 76/84/71 72/79/66 39/36/36
f 77/86/72 70/81/68 76/84/71
f 77/88/72 79/92/75 78/89/73
f 70/87/68 78/89/73 80/91/74
f 79/92/75 81/97/79 82/93/76
f 86/121/97 81/97/79 85/98/80
f 92/101/82 93/104/83 19/106/84
f 96/110/88 95/115/92 88/111/89
f 97/113/91 96/110/88 89/109/87
f 95/115/92 98/108/86 87/114/81
f 90/112/90 91/116/93 97/113/91
f 88/119/89 87/100/81 82/93/76
f 100/118/95 82/93/76 81/97/79
f 102/132/99 105/127/101 101/125/96
f 56/133/104 106/130/102 105/127/101
f 107/136/107 56/133/104 108/135/106
f 108/135/106 84/134/105 53/138/52
f 109/140/108 108/135/106 53/138/52
f 110/142/110 109/181/108 54/143/62
f 112/182/113 91/145/93 107/136/107
f 109/140/108 112/182/113 107/136/107
f 109/181/108 110/142/110 112/147/113
f 91/116/93 112/147/113 113/146/112
f 63/60/54 58/149/114 59/57/51
f 86/121/97 58/149/114 56/148/104
f 61/52/48 59/57/51 85/98/80
f 84/150/105 58/149/114 63/60/54
f 115/151/115 95/115/92 116/152/116
f 114/153/117 116/152/116 96/110/88
f 21/155/17 19/106/84 116/152/116
f 65/65/56 49/51/47 47/50/46
f 48/67/57 65/65/56 66/70/60
f 54/73/62 117/158/119 120/161/121
f 68/74/63 43/40/40 117/158/119
f 99/117/94 122/163/123 97/113/91
f 111/144/111 57/166/125 122/163/123
f 123/164/124 40/38/38 23/20/20
f 121/162/122 125/167/126 55/160/109
f 43/40/40 127/39/39 120/161/121
f 129/175/130 121/162/122 42/43/42
f 128/172/129 125/167/126 129/175/130
f 130/176/131 131/131/103 90/177/90
f 131/131/103 130/176/131 104/126/100
